HIERARCHY
ROOT hip
{
  OFFSET 0 0 0
  CHANNELS 6 Xposition Yposition Zposition Zrotation Yrotation Xrotation
  JOINT abdomen
  {
    OFFSET 0 20.6881 -0.73152
    CHANNELS 3 Zrotation Xrotation Yrotation
    JOINT chest
    {
      OFFSET 0 11.7043 -0.48768
      CHANNELS 3 Zrotation Xrotation Yrotation
      JOINT neck
      {
        OFFSET 0 22.1894 -2.19456
        CHANNELS 3 Zrotation Xrotation Yrotation
        JOINT head
        {
          OFFSET -0.24384 7.07133 1.2192
          CHANNELS 3 Zrotation Xrotation Yrotation
          JOINT leftEye
          {
            OFFSET 4.14528 8.04674 8.04672
            CHANNELS 3 Zrotation Xrotation Yrotation
            End Site
            {
              OFFSET 1 0 0
            }
          }
          JOINT rightEye
          {
            OFFSET -3.6576 8.04674 8.04672
            CHANNELS 3 Zrotation Xrotation Yrotation
            End Site
            {
              OFFSET 1 0 0
            }
          }
        }
      }
      JOINT rCollar
      {
        OFFSET -2.68224 19.2634 -4.8768
        CHANNELS 3 Zrotation Xrotation Yrotation
        JOINT rShldr
        {
          OFFSET -8.77824 -1.95073 1.46304
          CHANNELS 3 Zrotation Xrotation Yrotation
          JOINT rForeArm
          {
            OFFSET -28.1742 -1.7115 0.48768
            CHANNELS 3 Zrotation Xrotation Yrotation
            JOINT rHand
            {
              OFFSET -22.5879 0.773209 7.07136
              CHANNELS 3 Zrotation Xrotation Yrotation
              JOINT rThumb1
              {
                OFFSET -1.2192 -0.487915 3.41376
                CHANNELS 3 Zrotation Xrotation Yrotation
                JOINT rThumb2
                {
                  OFFSET -3.37035 -0.52449 3.41376
                  CHANNELS 3 Zrotation Xrotation Yrotation
                  End Site
                  {
                    OFFSET -1.78271 -1.18214 1.43049
                  }
                }
              }
              JOINT rIndex1
              {
                OFFSET -7.75947 0.938293 5.60832
                CHANNELS 3 Zrotation Xrotation Yrotation
                JOINT rIndex2
                {
                  OFFSET -2.54057 -0.884171 1.56538
                  CHANNELS 3 Zrotation Xrotation Yrotation
                  End Site
                  {
                    OFFSET -1.62519 -0.234802 1.16502
                  }
                }
              }
              JOINT rMid1
              {
                OFFSET -8.24714 1.18213 3.41376
                CHANNELS 3 Zrotation Xrotation Yrotation
                JOINT rMid2
                {
                  OFFSET -3.10165 -0.590103 1.0647
                  CHANNELS 3 Zrotation Xrotation Yrotation
                  End Site
                  {
                    OFFSET -2.48547 -0.328903 0.83742
                  }
                }
              }
              JOINT rRing1
              {
                OFFSET -8.82822 0.546677 1.51678
                CHANNELS 3 Zrotation Xrotation Yrotation
                JOINT rRing2
                {
                  OFFSET -2.60934 -0.819778 -0.0198488
                  CHANNELS 3 Zrotation Xrotation Yrotation
                  End Site
                  {
                    OFFSET -2.33842 -0.294052 0.168128
                  }
                }
              }
              JOINT rPinky1
              {
                OFFSET -8.27202 -0.0477905 -0.4584
                CHANNELS 3 Zrotation Xrotation Yrotation
                JOINT rPinky2
                {
                  OFFSET -1.82734 -0.647385 -0.700984
                  CHANNELS 3 Zrotation Xrotation Yrotation
                  End Site
                  {
                    OFFSET -1.69225 -0.51767 -0.607171
                  }
                }
              }
            }
          }
        }
      }
      JOINT lCollar
      {
        OFFSET 2.68224 19.2634 -4.8768
        CHANNELS 3 Zrotation Xrotation Yrotation
        JOINT lShldr
        {
          OFFSET 8.77824 -1.95073 1.46304
          CHANNELS 3 Zrotation Xrotation Yrotation
          JOINT lForeArm
          {
            OFFSET 28.1742 -1.7115 0.48768
            CHANNELS 3 Zrotation Xrotation Yrotation
            JOINT lHand
            {
              OFFSET 22.5879 0.773209 7.07136
              CHANNELS 3 Zrotation Xrotation Yrotation
              JOINT lThumb1
              {
                OFFSET 1.2192 -0.487915 3.41376
                CHANNELS 3 Zrotation Xrotation Yrotation
                JOINT lThumb2
                {
                  OFFSET 3.37035 -0.52449 3.41376
                  CHANNELS 3 Zrotation Xrotation Yrotation
                  End Site
                  {
                    OFFSET 1.78271 -1.18214 1.43049
                  }
                }
              }
              JOINT lIndex1
              {
                OFFSET 7.75947 0.938293 5.60832
                CHANNELS 3 Zrotation Xrotation Yrotation
                JOINT lIndex2
                {
                  OFFSET 2.54057 -0.884171 1.56538
                  CHANNELS 3 Zrotation Xrotation Yrotation
                  End Site
                  {
                    OFFSET 1.62519 -0.234802 1.16502
                  }
                }
              }
              JOINT lMid1
              {
                OFFSET 8.24714 1.18213 3.41376
                CHANNELS 3 Zrotation Xrotation Yrotation
                JOINT lMid2
                {
                  OFFSET 3.10165 -0.590103 1.0647
                  CHANNELS 3 Zrotation Xrotation Yrotation
                  End Site
                  {
                    OFFSET 2.48547 -0.328903 0.83742
                  }
                }
              }
              JOINT lRing1
              {
                OFFSET 8.82822 0.546677 1.51678
                CHANNELS 3 Zrotation Xrotation Yrotation
                JOINT lRing2
                {
                  OFFSET 2.60934 -0.819778 -0.0198488
                  CHANNELS 3 Zrotation Xrotation Yrotation
                  End Site
                  {
                    OFFSET 2.33842 -0.294052 0.168128
                  }
                }
              }
              JOINT lPinky1
              {
                OFFSET 8.27202 -0.0477905 -0.4584
                CHANNELS 3 Zrotation Xrotation Yrotation
                JOINT lPinky2
                {
                  OFFSET 1.82734 -0.647385 -0.700984
                  CHANNELS 3 Zrotation Xrotation Yrotation
                  End Site
                  {
                    OFFSET 1.69225 -0.51767 -0.607171
                  }
                }
              }
            }
          }
        }
      }
    }
  }
  JOINT rButtock
  {
    OFFSET -8.77824 4.35084 1.2192
    CHANNELS 3 Zrotation Xrotation Yrotation
    JOINT rThigh
    {
      OFFSET 0 -1.70687 -2.19456
      CHANNELS 3 Zrotation Xrotation Yrotation
      JOINT rShin
      {
        OFFSET 0 -36.8199 0.73152
        CHANNELS 3 Zrotation Xrotation Yrotation
        JOINT rFoot
        {
          OFFSET 0.73152 -45.1104 -5.12064
          CHANNELS 3 Zrotation Xrotation Yrotation
          End Site
          {
            OFFSET -1.1221 -3.69964 12.103
          }
        }
      }
    }
  }
  JOINT lButtock
  {
    OFFSET 8.77824 4.35084 1.2192
    CHANNELS 3 Zrotation Xrotation Yrotation
    JOINT lThigh
    {
      OFFSET 0 -1.70687 -2.19456
      CHANNELS 3 Zrotation Xrotation Yrotation
      JOINT lShin
      {
        OFFSET 0 -36.8199 0.73152
        CHANNELS 3 Zrotation Xrotation Yrotation
        JOINT lFoot
        {
          OFFSET -0.73152 -45.1104 -5.12064
          CHANNELS 3 Zrotation Xrotation Yrotation
          End Site
          {
            OFFSET 1.1221 -3.69964 12.103
          }
        }
      }
    }
  }
}
MOTION
Frames:	7
Frame Time:	0.00833333
0.0 0.0 0.0 0.0 0.0 0.0 0.0 0.0 0.0 0.0 0.0 0.0 0.0 0.0 0.0 0.0 0.0 0.0 0.0 0.0 0.0 0.0 0.0 0.0 0.0 0.0 0.0 0.0 0.0 0.0 0.0 0.0 0.0 0.0 0.0 0.0 0.0 0.0 0.0 0.0 0.0 0.0 0.0 0.0 0.0 0.0 0.0 0.0 0.0 0.0 0.0 0.0 0.0 0.0 0.0 0.0 0.0 0.0 0.0 0.0 0.0 0.0 0.0 0.0 0.0 0.0 0.0 0.0 0.0 0.0 0.0 0.0 0.0 0.0 0.0 0.0 0.0 0.0 0.0 0.0 0.0 0.0 0.0 0.0 0.0 0.0 0.0 0.0 0.0 0.0 0.0 0.0 0.0 0.0 0.0 0.0 0.0 0.0 0.0 0.0 0.0 0.0 0.0 0.0 0.0 0.0 0.0 0.0 0.0 0.0 0.0 0.0 0.0 0.0 0.0 0.0 0.0 0.0 0.0 0.0 0.0 0.0 0.0 0.0 0.0 0.0 0.0 0.0 0.0 0.0 0.0 0.0
0.0861 61.9707 -0.1851 179.307802 -68.046184 179.675952 0.505912 -1.013347 -153.467586 -9.69423 -7.288913 117.882452 9.475014 -12.899846 88.186813 33.731053 44.949458 130.562371 -144.258668 -9.913499 -30.110828 70.559503 -26.214198 -36.432266 83.921217 -51.019156 -3.207002 7.533379 16.074861 5.175158 -12.836582 -78.940874 147.798313 83.44299 -64.83575 -1.552727 -4.442142 -14.201639 43.097665 160.769048 18.201618 -79.569365 -123.059339 29.012178 -135.487422 110.060086 -8.690668 171.245639 138.413977 14.320433 -98.977096 -79.925625 67.529294 76.644553 -85.701909 17.432146 -100.310703 -158.429966 -19.873352 176.928437 -139.055351 24.545647 -73.223688 -140.463242 -11.262509 -134.389031 79.842618 1.217476 -159.151888 -15.692118 -48.348863 -9.960341 -2.188952 0.800105 -165.241315 -153.87669 -39.722177 -99.13875 -163.810357 -10.614887 -84.106815 -71.445609 -68.267887 -29.793261 33.974967 -5.66028 -17.091929 59.859884 47.196974 -48.294646 5.404657 -26.131682 -10.771914 175.325446 -58.861662 -141.008187 72.583444 51.639494 105.0215 -16.852139 44.29433 7.930698 -161.752115 18.354742 30.395127 146.819457 13.525197 144.152998 -0.057922 -50.132638 0.00328 -1.00523 51.752396 -0.0 7.086185 0.909511 107.811471 72.325631 1.087934 -93.544377 5.973469 54.224033 172.30654 -1.453843 53.492166 180.0 -7.173941 -1.8005 -77.872843 68.097367 -28.332036 -112.936928
-0.12290000000000001 68.2126 -0.8834 6.607915 -38.78622 -2.766255 -5.015959 16.60839 -24.215584 14.173972 -4.998579 20.502787 4.041121 27.669768 98.029277 -36.323308 14.807889 -129.067202 -5.903051 0.861351 -16.589408 -1.845825 0.055866 -3.466867 3.226739 -27.012969 -4.479022 64.899828 -4.755058 12.511315 178.373866 9.316248 64.982322 -152.623622 22.784386 135.944308 93.286375 -55.030367 39.973111 -33.099311 4.670998 -8.711834 -19.970664 24.541383 11.533156 28.686759 -3.50594 -0.105884 -11.765475 25.998771 5.856832 -0.543495 21.248475 7.670211 -146.107216 29.973565 178.834379 -169.723994 64.692121 -172.481212 -8.583894 -21.430452 -19.911261 -5.06648 -39.829499 -3.33189 8.544025 35.054095 -10.492767 68.175454 18.589678 -17.529584 120.029554 -29.216131 51.193882 -1.684732 -49.59399 12.781283 162.86336 1.478272 -78.963669 177.439577 -1.729664 -92.139067 164.982077 -35.64709 -108.504431 150.496778 -12.254771 -122.037836 -14.649392 -19.908881 -10.666902 123.95695 60.602391 -112.636314 -2.877213 -45.824336 -1.928854 42.825765 -80.756647 73.204526 133.485521 41.467225 174.538953 148.665388 49.391323 155.918829 153.494371 68.298091 20.381104 171.063358 5.046658 -0.0 -22.404023 79.29926 160.948734 -153.466768 9.185987 155.360341 -0.364097 5.683478 -0.64512 18.791465 -12.133168 -48.018928 -61.886128 22.886493 -41.259478 112.038303 -18.920044 178.56636
0.0168 68.8052 -1.6576 7.773392 -34.72461 -3.041703 -6.833214 13.69742 -153.158126 -5.579451 9.216337 150.939009 4.925164 20.445531 64.117387 -35.772533 -0.380722 -105.908489 -7.787902 0.202685 -2.97706 1.034216 0.041955 4.645916 -47.893492 65.91862 49.906069 -176.927932 10.058374 117.488363 61.659783 52.17788 40.042992 -20.323197 -12.033925 -0.03201 -172.560902 -11.864977 88.56327 -37.485777 -30.741456 -2.118212 11.994348 -18.737407 -4.075429 -153.31484 -7.075931 121.063108 -159.265606 -8.399141 139.816852 -128.232204 50.644593 115.854469 -82.858614 -71.799744 -95.82392 -74.184471 -72.97563 -98.226089 48.000856 78.044137 -12.350403 -159.950795 27.798318 -142.098125 154.70098 -3.05692 -162.466458 -92.717185 30.720535 55.574446 37.192477 73.663198 -131.245391 11.642073 -23.60784 7.471632 75.508732 35.877063 -45.255806 125.924207 -20.822248 -78.046647 -1.177362 2.15649 -3.072634 -19.844941 -0.242964 4.857725 77.491879 65.205341 -76.355225 160.530576 8.601659 -144.118066 -13.514011 -0.877664 -0.85702 -5.765629 -44.731375 0.904343 -14.704861 42.231383 -7.730831 140.272895 -10.137283 149.929218 174.52868 74.599022 5.673803 155.318243 4.758508 79.767666 77.286347 11.513899 15.734821 -134.617239 -30.055378 125.812576 12.097741 -0.731063 5.945851 1.358966 -5.728153 0.0 3.010727 52.485506 -38.612103 178.433399 -32.565189 -72.939153
0.6299 68.3781 -2.4325 7.328992 -35.919338 -2.73964 -5.677583 16.719939 -115.341499 4.134936 10.331227 111.884122 -12.537876 21.949909 -48.497291 28.930718 -20.320838 16.743838 -4.064822 -0.045236 1.274649 1.15804 -0.031414 -3.10761 -106.183527 66.788141 108.532031 -28.342896 -13.158869 43.070266 14.171276 19.33088 -125.148264 -132.013947 38.213702 116.741323 94.382546 -49.738592 38.72226 -137.213025 16.339263 100.57814 -11.381649 19.232158 10.428239 -0.888696 18.833675 -0.57317 -152.053982 11.733927 140.759064 86.582558 -76.792623 60.927695 -1.609533 13.125104 0.922009 -147.420862 -1.422361 172.038911 13.896674 30.618704 2.576805 2.641946 45.122578 16.641831 36.850812 -86.259199 58.422781 98.333653 -6.614483 -147.670958 50.150292 68.434554 73.435331 171.08961 -9.972665 -145.433955 163.610083 -3.041166 -88.095875 -5.811396 -47.85377 -20.912648 -160.794538 -74.521463 -103.651692 76.108927 53.567407 -64.086781 27.960846 53.937029 -27.986985 33.916609 64.133777 -24.779586 -6.589186 19.285378 -0.018948 157.291039 31.445456 -163.63592 54.803337 -45.733679 56.064262 122.80836 -28.322173 123.632947 175.772169 73.837984 4.401127 159.446281 4.063959 -180.0 68.356298 -75.859352 71.343981 53.63198 8.451568 -176.333323 -154.98507 74.526837 -16.728245 -172.552096 65.737341 -57.638854 -53.236287 33.257141 -13.597043 152.91359 -36.436312 -130.60207
1.7173 68.7675 -2.9171 6.333824 -38.372383 -2.578581 -4.339818 16.374482 -118.593236 4.283614 9.189553 116.136084 8.234508 26.489862 95.569476 -38.232259 18.150096 -125.441806 -1.673737 -0.018874 1.292028 1.033912 -0.028169 -3.12123 -156.407798 -3.042059 163.252708 -42.890298 -6.689892 -19.002961 4.666506 -31.846657 -123.1568 -132.953515 32.520312 122.154044 9.970452 -6.95074 2.141209 -147.979891 -75.770616 132.457502 -6.965907 16.070658 6.768284 -165.311773 -20.466327 111.405799 19.322238 -54.765677 -6.803971 -32.990915 56.026694 26.939433 -143.281878 -4.748748 -173.407065 7.643683 33.649463 -4.335642 -25.474859 -36.488939 -28.392343 -78.608801 -57.969029 -80.904811 -4.976586 -44.764789 7.586912 -18.65287 11.52026 -73.271722 -91.146894 20.679496 -68.579413 63.501859 53.723736 -42.698695 0.158948 0.489924 -2.09322 -3.431923 -6.08058 10.587481 138.855894 1.543455 -117.923732 160.719026 -19.333497 -122.258011 130.147971 43.258 -126.116849 8.036308 44.706945 -8.350163 143.42685 15.807353 178.98157 116.659571 -67.968301 137.79824 -27.721074 66.348106 -4.682198 -11.573891 24.442085 -7.396722 0.399248 2.345857 -0.529248 -40.734461 -64.615213 180.0 -53.607684 -57.049771 -172.605328 -158.796461 -34.71473 81.647203 0.500413 1.298044 -0.654593 9.593628 -10.965218 109.152775 59.206653 -27.04074 -30.461035 65.271811 -55.370505 -19.566239
3.0016000000000003 68.8582 -3.3269 6.112514 -39.305864 -2.209917 -6.667897 14.820835 153.142811 -10.687615 2.264703 -153.898893 6.96695 22.445713 74.380874 -37.270643 2.655414 -105.817452 0.041464 -0.000421 -1.163909 1.014348 -0.002965 -0.335002 -27.366582 58.215758 28.246283 70.050667 -24.056542 75.410091 -176.517827 43.481362 51.719006 -131.121003 33.622077 121.09374 5.318789 -4.054079 2.434075 -2.190923 8.619295 -2.701182 -144.692202 -12.616609 122.716005 -61.787163 57.666296 45.994823 -34.185169 56.784639 30.610273 -162.384335 -4.847347 143.380488 -72.352281 -69.209221 -91.549491 -147.229665 -46.229115 -174.397241 28.079745 69.442349 6.938262 -150.513019 11.732856 -141.30318 10.032203 34.643183 -12.052573 -55.224939 -63.890299 -108.80373 -172.191798 -0.84177 -53.039369 158.083612 20.13267 -134.901668 2.254763 2.781249 -2.840565 13.379136 17.112964 -9.705926 121.649331 21.94943 -104.540649 -178.809194 -46.886549 -114.786248 164.196483 -39.715359 -147.111786 -161.252332 -63.820935 -122.543053 74.399184 -69.288301 93.505688 -16.27376 25.711679 0.136083 138.082294 -7.094451 133.30471 149.581788 8.000233 141.764776 -179.703925 73.425244 -0.0 162.500579 6.726536 69.619757 65.523451 30.600951 8.380937 -152.155992 -41.616726 102.980053 -0.122419 1.640815 -0.19195 10.978331 -11.764556 -76.822094 -63.254383 10.173046 -8.602217 4.852771 47.675596 108.518811
